<?xml version="1.0" encoding="UTF-8" standalone="no"?>
<svg width="45px" height="59px" viewBox="0 0 45 59" version="1.1" xmlns="http://www.w3.org/2000/svg" xmlns:xlink="http://www.w3.org/1999/xlink">
    <!-- Generator: sketchtool 3.7.2 (28276) - http://www.bohemiancoding.com/sketch -->
    <title>DFE4DDAC-7203-41E5-B8CC-7ABFE019D0D1</title>
    <desc>Created with sketchtool.</desc>
    <defs></defs>
    <g id="Designs" stroke="none" stroke-width="1" fill="none" fill-rule="evenodd">
        <g id="v2" transform="translate(-486.000000, -473.000000)">
            <g id="Icon/Make-Up-Room" transform="translate(486.000000, 474.000000)">
                <path d="M27.7893805,21.3805722 L40.0369415,0.443109259 C40.0369415,0.443109259 43.6572829,-1.47948333 43.6465512,2.68577593 L31.3989902,23.6232389" id="Stroke-1" stroke="#FFFFFF" stroke-width="2" stroke-linecap="round"></path>
                <path d="M19.6587995,30.9148361 C11.2747073,31.7876834 1.02186368,40.0514659 0.207873171,44.2736019 C-0.55638203,48.2377628 0.823972814,50.4389659 3.77116354,52.80445 C3.86856346,49.7105674 5.20979121,46.7021542 7.37353176,43.874594 C8.14912608,42.861053 8.97850813,41.9425056 9.80874137,41.1333171 C10.3105272,40.6442506 10.7055939,40.2966888 10.9411518,40.106221 C11.3706101,39.7589689 12.0002583,39.8256102 12.3475104,40.2550685 C12.6947624,40.6845268 12.6281211,41.314175 12.1986629,41.6614271 C12.1560258,41.6959026 12.0669266,41.7709059 11.9380531,41.884283 C11.7179334,42.0779343 11.4712468,42.3057626 11.2046861,42.5655665 C10.4401289,43.3107437 9.67472056,44.1584397 8.96184385,45.0900218 C6.95697315,47.709972 5.76546829,50.4542634 5.76546829,53.1658611 C5.76546829,53.4721336 5.62778166,53.7462477 5.41092963,53.9296821 C8.21065709,55.3829595 11.3706637,54.7489683 12.0714782,54.580806 C11.9858753,54.4333933 11.9368585,54.2621014 11.9368585,54.0793611 C11.9368585,52.2397333 12.3916254,50.4247781 13.146387,48.7050522 C13.5976034,47.6769547 14.0522835,46.9005053 14.3692586,46.4496798 C14.6869122,45.9978894 15.3106699,45.88915 15.7624603,46.2068036 C16.2142508,46.5244572 16.3229902,47.1482149 16.0053366,47.6000054 C15.9503591,47.6781983 15.842247,47.8451874 15.6985971,48.090496 C15.4536692,48.5087553 15.2076003,48.9851473 14.9777691,49.5088181 C14.3260063,50.9938608 13.9368585,52.5469333 13.9368585,54.0793611 C13.9368585,54.6316459 13.4891433,55.0793611 12.9368585,55.0793611 C12.8843354,55.0793611 12.832758,55.0753118 12.7824216,55.0675084 C13.7713285,55.8992318 16.0048507,57.4608316 19.1225073,57.7666574 C22.543239,58.1023056 23.3261171,56.5808796 25.3603122,56.3569352 C34.8847024,57.3622685 34.5080195,53.5471574 34.5080195,53.5471574 C34.5080195,53.5471574 31.3502146,50.3131204 29.4217268,47.4926019 C26.287836,42.9111647 27.1052968,37.589422 27.6048019,35.5037538 L27.1364343,36.3258338 L19.1638489,31.7835745 L19.6587995,30.9148361 Z M20.1731277,30.0567724 L24.0478244,23.5890833 L31.4527024,28.03575 L27.9252874,34.4734475 L20.1731277,30.0567724 Z" id="Combined-Shape" fill="#FFFFFF"></path>
            </g>
        </g>
    </g>
</svg>