<?xml version="1.0" encoding="UTF-8" standalone="no"?>
<svg width="55px" height="43px" viewBox="0 0 55 43" version="1.1" xmlns="http://www.w3.org/2000/svg" xmlns:xlink="http://www.w3.org/1999/xlink">
    <!-- Generator: sketchtool 3.7.2 (28276) - http://www.bohemiancoding.com/sketch -->
    <title>7CC8D0C1-F919-4E53-90AD-FF057DC2359C</title>
    <desc>Created with sketchtool.</desc>
    <defs></defs>
    <g id="Designs" stroke="none" stroke-width="1" fill="none" fill-rule="evenodd">
        <g id="v2" transform="translate(-668.000000, -480.000000)">
            <g id="Icon/Curtains" transform="translate(669.000000, 481.000000)">
                <path d="M52.1645796,1.53477218 L0,1.53477218" id="Stroke-1" stroke="#FFFFFF" stroke-width="2" stroke-linecap="round" stroke-linejoin="round"></path>
                <path d="M0.769230769,4.8184708 L0.769230769,0" id="Stroke-3" stroke="#FFFFFF" stroke-linecap="round" stroke-linejoin="round"></path>
                <path d="M4.61538462,4.8184708 L4.61538462,0" id="Stroke-5" stroke="#FFFFFF" stroke-linecap="round" stroke-linejoin="round"></path>
                <path d="M8.46153846,4.8184708 L8.46153846,0" id="Stroke-7" stroke="#FFFFFF" stroke-linecap="round" stroke-linejoin="round"></path>
                <path d="M43.0769231,4.8184708 L43.0769231,0" id="Stroke-9" stroke="#FFFFFF" stroke-linecap="round" stroke-linejoin="round"></path>
                <path d="M46.9230769,4.8184708 L46.9230769,0" id="Stroke-11" stroke="#FFFFFF" stroke-linecap="round" stroke-linejoin="round"></path>
                <path d="M50.7692308,4.8184708 L50.7692308,0" id="Stroke-13" stroke="#FFFFFF" stroke-linecap="round" stroke-linejoin="round"></path>
                <path d="M42.5044723,6.74585913 L42.5044723,17.5180325 C42.5044723,21.9534348 47.3345259,24.0128493 47.3345259,26.8644203 C47.3345259,29.7159913 52.1645796,41.4388489 52.1645796,41.4388489 L52.1645796,6.74585913 L42.5044723,6.74585913 L42.5044723,6.74585913 Z" id="Stroke-15" fill="#FFFFFF"></path>
                <path d="M9.66010733,6.74585913 L9.66010733,17.5180325 C9.66010733,21.9534348 4.83005367,24.0128493 4.83005367,26.8644203 C4.83005367,29.7159913 0,41.4388489 0,41.4388489 L0,6.74585913 L9.66010733,6.74585913 L9.66010733,6.74585913 Z" id="Stroke-17" fill="#FFFFFF"></path>
            </g>
        </g>
    </g>
</svg>