<?xml version="1.0" encoding="UTF-8" standalone="no"?>
<svg width="56px" height="67px" viewBox="0 0 56 67" version="1.1" xmlns="http://www.w3.org/2000/svg" xmlns:xlink="http://www.w3.org/1999/xlink">
    <!-- Generator: sketchtool 3.7.2 (28276) - http://www.bohemiancoding.com/sketch -->
    <title>BB21F674-D1D5-4FD4-88A4-494E43874FA7</title>
    <desc>Created with sketchtool.</desc>
    <defs>
        <path d="M17.4624834,10.5650748 C17.4624834,7.05435945 14.3848651,4.23656771 10.6886872,4.48266412 C7.52631732,4.69290704 4.98807277,7.18484665 4.82185861,10.2367836 C4.70801329,12.331408 5.6918898,14.2092042 7.26776196,15.3862718 C7.72542012,15.7279776 8.00876846,16.0072446 8.00876846,16.5655346 L8.00876846,16.8294358 C8.00876846,17.9069918 8.91472418,18.7804024 10.0321792,18.7804024 L12.2433082,18.7804024 C13.3607632,18.7804024 14.2667189,17.9069918 14.2667189,16.8294358 L14.2667189,16.5635834 C14.2667189,16.0130982 14.5381768,15.7345629 14.9910281,15.3987108 C16.4935333,14.2840819 17.4624834,12.53409 17.4624834,10.5650748 Z M6.97358054,10.5065159 C6.97358054,8.61123444 8.57508055,7.06726601 10.5596154,7.06726601 C10.8357578,7.06726601 11.0596154,6.84340839 11.0596154,6.56726601 C11.0596154,6.29112364 10.8357578,6.06726601 10.5596154,6.06726601 C8.03081597,6.06726601 5.97358054,8.05059822 5.97358054,10.5065159 C5.97358054,10.7826583 6.19743817,11.0065159 6.47358054,11.0065159 C6.74972291,11.0065159 6.97358054,10.7826583 6.97358054,10.5065159 Z" id="path-1"></path>
    </defs>
    <g id="Designs" stroke="none" stroke-width="1" fill="none" fill-rule="evenodd">
        <g id="v2" transform="translate(-481.000000, -256.000000)">
            <g id="Icon/Bathroom" transform="translate(481.000000, 257.000000)">
                <g id="Page-1" transform="translate(0.179487, 37.000000)" fill="#976E3D">
                    <path d="M53.5828678,0.00104560317 C54.4697634,-0.0232273275 55.0769601,0.373355016 55.4462821,1.16539941 C55.4754096,1.22776218 55.5232086,1.28078919 55.5624187,1.33829737 L55.5624187,4.08972741 C55.1258794,5.08342385 54.3644562,5.5442361 53.2833772,5.46021442 C52.9928489,5.43780864 52.9110678,5.58008536 52.8546799,5.83401755 C52.4271029,7.75045879 51.9946713,9.66577973 51.5465557,11.5777398 C51.2836612,12.6984023 51.0655782,13.8377364 50.6947625,14.9232965 C49.6028541,18.1202282 47.5340535,20.4086054 44.2224789,21.3586106 C43.1712743,21.6599683 42.0423963,21.8164354 40.9482473,21.8205431 C32.2966279,21.8545252 23.6450086,21.8451895 14.9930158,21.8250243 C13.4268517,21.82129 11.8655421,21.6950707 10.3621141,21.1689083 C8.59429788,20.5505087 7.29289537,19.3913829 6.33056703,17.8125221 C5.15389004,15.8811437 4.69083721,13.7193591 4.25877904,11.5403968 C3.88572277,9.65681742 3.45067716,7.78593461 3.06193684,5.90571606 C2.99135863,5.56589503 2.84908191,5.46955016 2.50477973,5.45050525 C1.98421872,5.42175116 1.43527706,5.37918018 0.95990105,5.18873103 C0.301544485,4.92508966 0.0154973326,4.32797556 0.00578816039,3.61995285 C-0.00242729306,3.0284402 -0.00130700396,2.43692755 0.00504130098,1.8454149 C0.0158707623,0.804292893 0.779161074,0.033907417 1.82065651,0.0070204784 C2.01297281,0.00179246257 2.20528911,0.00477990019 2.3976054,0.00477990019 L53.5828678,0.00104560317 L53.5828678,0.00104560317 Z" id="Stroke-1"></path>
                    <path d="M39.9758737,22.8008334 C40.8855484,22.7436987 41.6858083,22.7493001 42.4659029,22.6253215 C42.9860905,22.5431669 43.2224715,22.6988871 43.4603462,23.1354264 C43.8472194,23.8445694 44.4279026,24.3923908 45.1385393,24.7942012 C45.3790281,24.9301296 45.5851612,24.9293827 45.8383466,24.7885997 C46.8406319,24.231816 48.1173881,24.5720105 48.7189833,25.5328451 C49.3426109,26.529529 49.0875584,27.8749962 48.1480093,28.5411948 C47.1755983,29.2309195 45.8148205,29.0961113 45.137419,28.1438656 C44.8132821,27.6879079 44.40475,27.5325612 43.9409503,27.3387512 C42.7063917,26.8226713 41.7504116,25.9477255 41.0468701,24.8203412 C40.6585032,24.1982074 40.3549048,23.5230465 39.9758737,22.8008334 L39.9758737,22.8008334 Z" id="Stroke-3"></path>
                    <path d="M17.0171542,22.7356326 C16.1283915,24.7073414 15.0835352,26.4000983 13.1573848,27.2821392 C12.4183674,27.6204665 11.7760683,28.0054726 11.1714856,28.5566548 C10.3577823,29.2982862 8.88310842,29.0025299 8.19637119,28.154471 C7.49058906,27.2832595 7.52457116,25.7622803 8.56980089,24.9918949 C9.3920931,24.3858184 10.2465003,24.3395132 11.1386238,24.8694099 C11.3033063,24.9672485 11.5572385,25.0030977 11.7443268,24.959033 C12.6558687,24.744311 13.2570905,24.1061196 13.6951236,23.3349873 C13.9621258,22.8644658 14.2582555,22.6755104 14.8064504,22.7214423 C15.5058842,22.7800707 16.2142803,22.7356326 17.0171542,22.7356326 L17.0171542,22.7356326 Z" id="Stroke-5"></path>
                </g>
                <g id="Icon/Lights" transform="translate(17.000000, 0.000000)">
                    <path d="M12.5060161,22.3384085 C12.5060161,23.0959659 11.8689883,23.7101094 11.0832027,23.7101094 C10.297417,23.7101094 9.6603892,23.0959659 9.6603892,22.3384085" id="Stroke-1" stroke="#976E3D" stroke-linecap="round"></path>
                    <path d="M8.91462649,20 L13.2903344,20" id="Stroke-3" stroke="#976E3D" stroke-linecap="round"></path>
                    <g id="Combined-Shape">
                        <use fill="#D8D8D8" xlink:href="#path-1"></use>
                        <use fill="#976E3D" xlink:href="#path-1"></use>
                    </g>
                    <path d="M11,0 L11,2.34679584" id="Stroke-3" stroke="#976E3D" stroke-width="2" stroke-linecap="round"></path>
                    <path d="M18.6737137,3.23566462 L16.9731467,4.89484398" id="Stroke-7" stroke="#976E3D" stroke-width="2" stroke-linecap="round"></path>
                    <path d="M3.31637719,3.23566462 L5.01694422,4.89484398" id="Stroke-11" stroke="#976E3D" stroke-width="2" stroke-linecap="round"></path>
                    <path d="M21.8543496,9.28576981 L19.4490137,9.28576981" id="Stroke-15" stroke="#976E3D" stroke-width="2" stroke-linecap="round"></path>
                    <path d="M2.54107717,9.28576981 L0.135741302,9.28576981" id="Stroke-17" stroke="#976E3D" stroke-width="2" stroke-linecap="round"></path>
                </g>
            </g>
        </g>
    </g>
</svg>