<?xml version="1.0" encoding="UTF-8" standalone="no"?>
<svg width="46px" height="60px" viewBox="0 0 46 60" version="1.1" xmlns="http://www.w3.org/2000/svg" xmlns:xlink="http://www.w3.org/1999/xlink">
    <!-- Generator: sketchtool 3.7.2 (28276) - http://www.bohemiancoding.com/sketch -->
    <title>B7E31AC9-1056-4DE1-BF09-FBDC1F33432B</title>
    <desc>Created with sketchtool.</desc>
    <defs></defs>
    <g id="Designs" stroke="none" stroke-width="1" fill="none" fill-rule="evenodd">
        <g id="v3" transform="translate(-563.000000, -466.000000)" stroke="#FFFFFF" stroke-width="2">
            <g id="Icon/Make-Up-Room---Off" transform="translate(564.000000, 467.000000)">
                <path d="M27.7893805,21.3805722 L40.0369415,0.443109259 C40.0369415,0.443109259 43.6572829,-1.47948333 43.6465512,2.68577593 L31.3989902,23.6232389" id="Stroke-1" stroke-linecap="round"></path>
                <path d="M24.0478244,23.5890833 L31.4527024,28.03575 L27.8559707,34.5999537 C27.8559707,34.5999537 25.4241659,41.6485648 29.4217268,47.4926019 C31.3502146,50.3131204 34.5080195,53.5471574 34.5080195,53.5471574 C34.5080195,53.5471574 34.8847024,57.3622685 25.3603122,56.3569352 C23.3261171,56.5808796 22.543239,58.1023056 19.1225073,57.7666574 C14.830361,57.3456204 12.2139707,54.5444352 12.2139707,54.5444352 C12.2139707,54.5444352 7.72006829,55.8198981 4.36640976,53.2689722 C1.01275122,50.7180463 -0.606126829,48.495787 0.207873171,44.2736019 C1.02187317,40.0514167 11.2749463,31.7874907 19.6590927,30.9148056 L24.0478244,23.5890833 L24.0478244,23.5890833 Z" id="Stroke-3"></path>
                <path d="M15.1872976,47.0248426 C15.1872976,47.0248426 12.9368585,50.2255833 12.9368585,54.0793611" id="Stroke-5" stroke-linecap="round"></path>
                <path d="M11.5699073,40.8838241 C11.5699073,40.8838241 4.76546829,46.3857685 4.76546829,53.1658611" id="Stroke-7" stroke-linecap="round"></path>
                <path d="M19.658878,30.9146981 L27.6314634,35.4569574" id="Stroke-9"></path>
            </g>
        </g>
    </g>
</svg>