<?xml version="1.0" encoding="UTF-8" standalone="no"?>
<svg width="34px" height="50px" viewBox="0 0 34 50" version="1.1" xmlns="http://www.w3.org/2000/svg" xmlns:xlink="http://www.w3.org/1999/xlink">
    <!-- Generator: sketchtool 3.7.2 (28276) - http://www.bohemiancoding.com/sketch -->
    <title>4CC13C3C-89D3-4C6B-BF16-5B51A859F278</title>
    <desc>Created with sketchtool.</desc>
    <defs></defs>
    <g id="Designs" stroke="none" stroke-width="1" fill="none" fill-rule="evenodd" stroke-linecap="round">
        <g id="v3" transform="translate(-233.000000, -258.000000)" stroke="#976E3D" stroke-width="2">
            <g id="Icon/Lights---Off" transform="translate(234.000000, 258.000000)">
                <path d="M19.696585,44.9152542 C19.696585,46.777583 18.1329713,48.2873523 16.2042247,48.2873523 C14.2754781,48.2873523 12.7118644,46.777583 12.7118644,44.9152542" id="Stroke-1"></path>
                <path d="M10.8813559,41.2542373 L21.62173,41.2542373" id="Stroke-3"></path>
                <path d="M31.8624594,15.9724755 C31.8624594,7.34196698 24.3083052,0.414895608 15.2358685,1.01988263 C7.47368796,1.53672981 1.24345134,7.66274801 0.835471124,15.1654265 C0.556032622,20.3147114 2.97100225,24.9309602 6.83905208,27.8245849 C7.96239485,28.6646115 8.65788623,29.3511429 8.65788623,30.723606 L8.65788623,31.3723631 C8.65788623,34.0213548 10.8815957,36.1684891 13.6244399,36.1684891 L19.0517565,36.1684891 C21.7946007,36.1684891 24.0183101,34.0213548 24.0183101,31.3723631 L24.0183101,30.7188093 C24.0183101,29.365533 24.6846157,28.6808005 25.79616,27.8551641 C29.4841272,25.1150346 31.8624594,20.8129713 31.8624594,15.9724755 L31.8624594,15.9724755 Z" id="Stroke-7"></path>
                <path d="M4.88969769,15.8285184 C4.88969769,10.4801693 9.37996391,6.14452894 14.919056,6.14452894" id="Stroke-9"></path>
            </g>
        </g>
    </g>
</svg>