<?xml version="1.0" encoding="UTF-8" standalone="no"?>
<svg width="58px" height="64px" viewBox="0 0 58 64" version="1.1" xmlns="http://www.w3.org/2000/svg" xmlns:xlink="http://www.w3.org/1999/xlink">
    <!-- Generator: sketchtool 3.7.2 (28276) - http://www.bohemiancoding.com/sketch -->
    <title>3E382321-AE08-48C1-A1CF-1E0127B63A8D</title>
    <desc>Created with sketchtool.</desc>
    <defs></defs>
    <g id="Designs" stroke="none" stroke-width="1" fill="none" fill-rule="evenodd" stroke-linecap="round">
        <g id="v3" transform="translate(-558.000000, -253.000000)" stroke="#FFFFFF">
            <g id="Icon/Bathroom---Off" transform="translate(559.000000, 254.000000)">
                <g id="Page-1" transform="translate(0.000000, 33.000000)" stroke-width="2" stroke-linejoin="round">
                    <path d="M53.5828678,0.00104560317 C54.4697634,-0.0232273275 55.0769601,0.373355016 55.4462821,1.16539941 C55.4754096,1.22776218 55.5232086,1.28078919 55.5624187,1.33829737 L55.5624187,4.08972741 C55.1258794,5.08342385 54.3644562,5.5442361 53.2833772,5.46021442 C52.9928489,5.43780864 52.9110678,5.58008536 52.8546799,5.83401755 C52.4271029,7.75045879 51.9946713,9.66577973 51.5465557,11.5777398 C51.2836612,12.6984023 51.0655782,13.8377364 50.6947625,14.9232965 C49.6028541,18.1202282 47.5340535,20.4086054 44.2224789,21.3586106 C43.1712743,21.6599683 42.0423963,21.8164354 40.9482473,21.8205431 C32.2966279,21.8545252 23.6450086,21.8451895 14.9930158,21.8250243 C13.4268517,21.82129 11.8655421,21.6950707 10.3621141,21.1689083 C8.59429788,20.5505087 7.29289537,19.3913829 6.33056703,17.8125221 C5.15389004,15.8811437 4.69083721,13.7193591 4.25877904,11.5403968 C3.88572277,9.65681742 3.45067716,7.78593461 3.06193684,5.90571606 C2.99135863,5.56589503 2.84908191,5.46955016 2.50477973,5.45050525 C1.98421872,5.42175116 1.43527706,5.37918018 0.95990105,5.18873103 C0.301544485,4.92508966 0.0154973326,4.32797556 0.00578816039,3.61995285 C-0.00242729306,3.0284402 -0.00130700396,2.43692755 0.00504130098,1.8454149 C0.0158707623,0.804292893 0.779161074,0.033907417 1.82065651,0.0070204784 C2.01297281,0.00179246257 2.20528911,0.00477990019 2.3976054,0.00477990019 L53.5828678,0.00104560317 L53.5828678,0.00104560317 Z" id="Stroke-1"></path>
                    <path d="M39.9758737,22.8008334 C40.8855484,22.7436987 41.6858083,22.7493001 42.4659029,22.6253215 C42.9860905,22.5431669 43.2224715,22.6988871 43.4603462,23.1354264 C43.8472194,23.8445694 44.4279026,24.3923908 45.1385393,24.7942012 C45.3790281,24.9301296 45.5851612,24.9293827 45.8383466,24.7885997 C46.8406319,24.231816 48.1173881,24.5720105 48.7189833,25.5328451 C49.3426109,26.529529 49.0875584,27.8749962 48.1480093,28.5411948 C47.1755983,29.2309195 45.8148205,29.0961113 45.137419,28.1438656 C44.8132821,27.6879079 44.40475,27.5325612 43.9409503,27.3387512 C42.7063917,26.8226713 41.7504116,25.9477255 41.0468701,24.8203412 C40.6585032,24.1982074 40.3549048,23.5230465 39.9758737,22.8008334 L39.9758737,22.8008334 Z" id="Stroke-3"></path>
                    <path d="M17.0171542,22.7356326 C16.1283915,24.7073414 15.0835352,26.4000983 13.1573848,27.2821392 C12.4183674,27.6204665 11.7760683,28.0054726 11.1714856,28.5566548 C10.3577823,29.2982862 8.88310842,29.0025299 8.19637119,28.154471 C7.49058906,27.2832595 7.52457116,25.7622803 8.56980089,24.9918949 C9.3920931,24.3858184 10.2465003,24.3395132 11.1386238,24.8694099 C11.3033063,24.9672485 11.5572385,25.0030977 11.7443268,24.959033 C12.6558687,24.744311 13.2570905,24.1061196 13.6951236,23.3349873 C13.9621258,22.8644658 14.2582555,22.6755104 14.8064504,22.7214423 C15.5058842,22.7800707 16.2142803,22.7356326 17.0171542,22.7356326 L17.0171542,22.7356326 Z" id="Stroke-5"></path>
                </g>
                <g id="Icon/Lights" transform="translate(21.000000, 0.000000)">
                    <path d="M8.50601611,18.3384085 C8.50601611,19.0959659 7.86898832,19.7101094 7.08320265,19.7101094 C6.29741699,19.7101094 5.6603892,19.0959659 5.6603892,18.3384085" id="Stroke-1"></path>
                    <path d="M4.91462649,16 L9.29033443,16" id="Stroke-3"></path>
                    <path d="M13.4624834,6.5650748 C13.4624834,3.05435945 10.3848651,0.236567705 6.68868719,0.482664119 C3.52631732,0.692907042 0.988072766,3.18484665 0.821858606,6.23678364 C0.708013291,8.33140803 1.6918898,10.2092042 3.26776196,11.3862718 C3.72542012,11.7279776 4.00876846,12.0072446 4.00876846,12.5655346 L4.00876846,12.8294358 C4.00876846,13.9069918 4.91472418,14.7804024 6.0321792,14.7804024 L8.24330821,14.7804024 C9.36076323,14.7804024 10.2667189,13.9069918 10.2667189,12.8294358 L10.2667189,12.5635834 C10.2667189,12.0130982 10.5381768,11.7345629 10.9910281,11.3987108 C12.4935333,10.2840819 13.4624834,8.53409001 13.4624834,6.5650748 L13.4624834,6.5650748 Z" id="Stroke-7"></path>
                    <path d="M2.47358054,6.50651594 C2.47358054,4.33091633 4.30294826,2.56726601 6.5596154,2.56726601" id="Stroke-9"></path>
                </g>
            </g>
        </g>
    </g>
</svg>