<?xml version="1.0" encoding="UTF-8" standalone="no"?>
<svg width="55px" height="44px" viewBox="0 0 55 44" version="1.1" xmlns="http://www.w3.org/2000/svg" xmlns:xlink="http://www.w3.org/1999/xlink">
    <!-- Generator: sketchtool 3.7.2 (28276) - http://www.bohemiancoding.com/sketch -->
    <title>644D8206-0F8C-4921-9EBE-245608CA5C38</title>
    <desc>Created with sketchtool.</desc>
    <defs></defs>
    <g id="Designs" stroke="none" stroke-width="1" fill="none" fill-rule="evenodd" stroke-linecap="round" stroke-linejoin="round">
        <g id="v3" transform="translate(-897.000000, -473.000000)" stroke="#976E3D">
            <g id="Icon/Curtains---Closed" transform="translate(898.000000, 474.000000)">
                <path d="M52.1645796,1.53477218 L0,1.53477218" id="Stroke-1" stroke-width="2"></path>
                <path d="M0.769230769,4.8184708 L0.769230769,0" id="Stroke-3"></path>
                <path d="M4.61538462,4.8184708 L4.61538462,0" id="Stroke-5"></path>
                <path d="M8.46153846,4.8184708 L8.46153846,0" id="Stroke-7"></path>
                <path d="M12.3076923,4.8184708 L12.3076923,0" id="Stroke-9"></path>
                <path d="M16.1538462,4.8184708 L16.1538462,0" id="Stroke-11"></path>
                <path d="M20,4.8184708 L20,0" id="Stroke-13"></path>
                <path d="M31.5384615,4.8184708 L31.5384615,0" id="Stroke-15"></path>
                <path d="M35.3846154,4.8184708 L35.3846154,0" id="Stroke-17"></path>
                <path d="M39.2307692,4.8184708 L39.2307692,0" id="Stroke-19"></path>
                <path d="M43.0769231,4.8184708 L43.0769231,0" id="Stroke-21"></path>
                <path d="M46.9230769,4.8184708 L46.9230769,0" id="Stroke-23"></path>
                <path d="M50.7692308,4.8184708 L50.7692308,0" id="Stroke-25"></path>
                <path d="M23.667263,41.4388489 L0.966010733,41.4388489 C0.43470483,41.4388489 0,41.0051865 0,40.4751548 L0,7.70955329 C0,7.1795215 0.43470483,6.74585913 0.966010733,6.74585913 L23.667263,6.74585913 C24.1985689,6.74585913 24.6332737,7.1795215 24.6332737,7.70955329 L24.6332737,40.4751548 C24.6332737,41.0051865 24.1985689,41.4388489 23.667263,41.4388489 L23.667263,41.4388489 Z" id="Stroke-27" stroke-width="2"></path>
                <path d="M51.1985689,41.4388489 L28.4973166,41.4388489 C27.9660107,41.4388489 27.5313059,41.0051865 27.5313059,40.4751548 L27.5313059,7.70955329 C27.5313059,7.1795215 27.9660107,6.74585913 28.4973166,6.74585913 L51.1985689,6.74585913 C51.7298748,6.74585913 52.1645796,7.1795215 52.1645796,7.70955329 L52.1645796,40.4751548 C52.1645796,41.0051865 51.7298748,41.4388489 51.1985689,41.4388489 L51.1985689,41.4388489 Z" id="Stroke-29" stroke-width="2"></path>
                <path d="M23.8461538,4.8184708 L23.8461538,0" id="Stroke-31"></path>
                <path d="M27.6923077,4.8184708 L27.6923077,0" id="Stroke-33"></path>
            </g>
        </g>
    </g>
</svg>