<?xml version="1.0" encoding="UTF-8" standalone="no"?>
<svg width="29px" height="56px" viewBox="0 0 29 56" version="1.1" xmlns="http://www.w3.org/2000/svg" xmlns:xlink="http://www.w3.org/1999/xlink">
    <!-- Generator: sketchtool 3.7.2 (28276) - http://www.bohemiancoding.com/sketch -->
    <title>DCD9336C-E40F-486F-8660-13CF20486EB5</title>
    <desc>Created with sketchtool.</desc>
    <defs></defs>
    <g id="Designs" stroke="none" stroke-width="1" fill="none" fill-rule="evenodd">
        <g id="v3" transform="translate(-234.000000, -468.000000)" stroke="#FFFFFF" stroke-width="2">
            <g id="Icon/DND---Off" transform="translate(235.000000, 469.000000)">
                <path d="M23.4789429,4.7961759 C19.3614429,-0.325366265 11.5288714,-1.55695663 6.09222857,2.13195904 C3.09072857,4.16379036 1.07665714,6.87940482 0.203014286,10.4466578 C-0.3447,12.6717181 0.215871429,14.1362241 1.87958571,14.7360795 C4.09101429,15.5356699 6.41751429,14.6391398 7.21401429,12.6398386 C7.44994286,12.0523446 7.5708,11.4271157 7.78744286,10.8272602 C8.52672857,8.72451325 9.82722857,7.24048916 12.0708,6.73106747 C14.5753714,6.16374217 16.9841571,7.11166988 17.8513714,9.28533253 C18.7565143,11.5494289 18.9538714,14.2910675 16.3091571,16.0515976 C11.8477286,19.0189952 7.48144286,22.1340795 3.00137143,25.081959 C1.07022857,26.3590916 0.241585714,28.0168265 0.260871429,30.3193084 C0.311657143,36.2410916 0.273085714,42.1622241 0.279514286,48.0833566 C0.285942857,51.6824892 1.85387143,53.3981277 5.40372857,53.3981277 C10.6044429,53.4046337 15.9202286,53.3981277 21.0888,53.3727542 C23.7399429,53.4371639 26.6276571,52.5790193 26.6276571,50.0507783 L26.6276571,13.2520554 C26.6276571,10.3822482 25.1490857,6.8728988 23.4789429,4.7961759" id="Stroke-1"></path>
                <path d="M7.85886429,34.7188771 L18.7687929,45.7602506" id="Stroke-3" stroke-linecap="round"></path>
                <path d="M7.85886429,45.7599253 L18.7687929,34.7185518" id="Stroke-5" stroke-linecap="round"></path>
            </g>
        </g>
    </g>
</svg>